<mxfile host="app.diagrams.net" modified="2021-05-19T18:07:01.603Z" agent="5.0 (Windows NT 10.0; Win64; x64) AppleWebKit/537.36 (KHTML, like Gecko) Chrome/90.0.4430.212 Safari/537.36" etag="H0-d39mpBlURhS9AFN2x" version="14.6.13" type="github">
  <diagram id="kgpKYQtTHZ0yAKxKKP6v" name="Page-1">
    <mxGraphModel dx="1462" dy="828" grid="1" gridSize="10" guides="1" tooltips="1" connect="1" arrows="1" fold="1" page="1" pageScale="1" pageWidth="850" pageHeight="1100" math="0" shadow="0">
      <root>
        <mxCell id="0" />
        <mxCell id="1" parent="0" />
        <mxCell id="d7HmcfIDhBQ9n9Z4sx2i-17" style="edgeStyle=orthogonalEdgeStyle;rounded=0;orthogonalLoop=1;jettySize=auto;html=1;" edge="1" parent="1" source="d7HmcfIDhBQ9n9Z4sx2i-1">
          <mxGeometry relative="1" as="geometry">
            <mxPoint x="150" y="140" as="targetPoint" />
          </mxGeometry>
        </mxCell>
        <mxCell id="d7HmcfIDhBQ9n9Z4sx2i-1" value="Actor" style="shape=umlActor;verticalLabelPosition=bottom;verticalAlign=top;html=1;outlineConnect=0;" vertex="1" parent="1">
          <mxGeometry x="20" y="110" width="30" height="60" as="geometry" />
        </mxCell>
        <mxCell id="d7HmcfIDhBQ9n9Z4sx2i-11" style="edgeStyle=orthogonalEdgeStyle;rounded=0;orthogonalLoop=1;jettySize=auto;html=1;" edge="1" parent="1" source="d7HmcfIDhBQ9n9Z4sx2i-7">
          <mxGeometry relative="1" as="geometry">
            <mxPoint x="165" y="600" as="targetPoint" />
            <Array as="points">
              <mxPoint x="165" y="270" />
              <mxPoint x="165" y="270" />
            </Array>
          </mxGeometry>
        </mxCell>
        <mxCell id="d7HmcfIDhBQ9n9Z4sx2i-7" value="ProcessoConsultaService&lt;br&gt;" style="rounded=1;whiteSpace=wrap;html=1;absoluteArcSize=1;arcSize=22;strokeWidth=2;" vertex="1" parent="1">
          <mxGeometry x="90" y="20" width="160" height="50" as="geometry" />
        </mxCell>
        <mxCell id="d7HmcfIDhBQ9n9Z4sx2i-13" style="edgeStyle=orthogonalEdgeStyle;rounded=0;orthogonalLoop=1;jettySize=auto;html=1;" edge="1" parent="1" source="d7HmcfIDhBQ9n9Z4sx2i-8">
          <mxGeometry relative="1" as="geometry">
            <mxPoint x="315" y="600" as="targetPoint" />
          </mxGeometry>
        </mxCell>
        <mxCell id="d7HmcfIDhBQ9n9Z4sx2i-8" value="XmlBuider" style="rounded=1;whiteSpace=wrap;html=1;absoluteArcSize=1;arcSize=22;strokeWidth=2;" vertex="1" parent="1">
          <mxGeometry x="270" y="20" width="90" height="60" as="geometry" />
        </mxCell>
        <mxCell id="d7HmcfIDhBQ9n9Z4sx2i-14" style="edgeStyle=orthogonalEdgeStyle;rounded=0;orthogonalLoop=1;jettySize=auto;html=1;" edge="1" parent="1" source="d7HmcfIDhBQ9n9Z4sx2i-9">
          <mxGeometry relative="1" as="geometry">
            <mxPoint x="495" y="610" as="targetPoint" />
            <Array as="points">
              <mxPoint x="495" y="610" />
            </Array>
          </mxGeometry>
        </mxCell>
        <mxCell id="d7HmcfIDhBQ9n9Z4sx2i-9" value="SoapClient" style="rounded=1;whiteSpace=wrap;html=1;absoluteArcSize=1;arcSize=22;strokeWidth=2;" vertex="1" parent="1">
          <mxGeometry x="390" y="20" width="210" height="60" as="geometry" />
        </mxCell>
        <mxCell id="d7HmcfIDhBQ9n9Z4sx2i-15" style="edgeStyle=orthogonalEdgeStyle;rounded=0;orthogonalLoop=1;jettySize=auto;html=1;" edge="1" parent="1" source="d7HmcfIDhBQ9n9Z4sx2i-10">
          <mxGeometry relative="1" as="geometry">
            <mxPoint x="1295" y="610" as="targetPoint" />
            <Array as="points">
              <mxPoint x="1295" y="470" />
            </Array>
          </mxGeometry>
        </mxCell>
        <mxCell id="d7HmcfIDhBQ9n9Z4sx2i-10" value="ServiÃ§o MNI" style="rounded=1;whiteSpace=wrap;html=1;absoluteArcSize=1;arcSize=22;strokeWidth=2;" vertex="1" parent="1">
          <mxGeometry x="1190" y="20" width="210" height="60" as="geometry" />
        </mxCell>
        <mxCell id="d7HmcfIDhBQ9n9Z4sx2i-16" style="edgeStyle=orthogonalEdgeStyle;rounded=0;orthogonalLoop=1;jettySize=auto;html=1;" edge="1" parent="1" source="d7HmcfIDhBQ9n9Z4sx2i-12">
          <mxGeometry relative="1" as="geometry">
            <mxPoint x="725" y="730" as="targetPoint" />
            <Array as="points">
              <mxPoint x="725" y="380" />
              <mxPoint x="725" y="380" />
            </Array>
          </mxGeometry>
        </mxCell>
        <mxCell id="d7HmcfIDhBQ9n9Z4sx2i-12" value="RespBuilder" style="rounded=1;whiteSpace=wrap;html=1;absoluteArcSize=1;arcSize=22;strokeWidth=2;" vertex="1" parent="1">
          <mxGeometry x="620" y="20" width="210" height="60" as="geometry" />
        </mxCell>
        <mxCell id="d7HmcfIDhBQ9n9Z4sx2i-21" value="dispatch" style="html=1;verticalAlign=bottom;startArrow=oval;startFill=1;endArrow=block;startSize=8;" edge="1" parent="1">
          <mxGeometry width="60" relative="1" as="geometry">
            <mxPoint x="160" y="190" as="sourcePoint" />
            <mxPoint x="310" y="190" as="targetPoint" />
            <Array as="points" />
          </mxGeometry>
        </mxCell>
        <mxCell id="d7HmcfIDhBQ9n9Z4sx2i-23" value="dispatch" style="html=1;verticalAlign=bottom;endArrow=block;" edge="1" parent="1">
          <mxGeometry width="80" relative="1" as="geometry">
            <mxPoint x="310" y="250" as="sourcePoint" />
            <mxPoint x="170" y="250" as="targetPoint" />
          </mxGeometry>
        </mxCell>
        <mxCell id="d7HmcfIDhBQ9n9Z4sx2i-24" value="dispatch" style="html=1;verticalAlign=bottom;endArrow=block;" edge="1" parent="1">
          <mxGeometry width="80" relative="1" as="geometry">
            <mxPoint x="170" y="280" as="sourcePoint" />
            <mxPoint x="480" y="280" as="targetPoint" />
          </mxGeometry>
        </mxCell>
        <mxCell id="d7HmcfIDhBQ9n9Z4sx2i-25" value="dispatch" style="html=1;verticalAlign=bottom;endArrow=block;" edge="1" parent="1">
          <mxGeometry x="-1" y="71" width="80" relative="1" as="geometry">
            <mxPoint x="500" y="310" as="sourcePoint" />
            <mxPoint x="1290" y="310" as="targetPoint" />
            <mxPoint x="-50" y="21" as="offset" />
          </mxGeometry>
        </mxCell>
        <mxCell id="d7HmcfIDhBQ9n9Z4sx2i-26" value="dispatch" style="html=1;verticalAlign=bottom;startArrow=oval;startFill=1;endArrow=block;startSize=8;" edge="1" parent="1">
          <mxGeometry width="60" relative="1" as="geometry">
            <mxPoint x="480" y="390" as="sourcePoint" />
            <mxPoint x="180" y="390" as="targetPoint" />
          </mxGeometry>
        </mxCell>
        <mxCell id="d7HmcfIDhBQ9n9Z4sx2i-27" value="dispatch" style="html=1;verticalAlign=bottom;startArrow=oval;startFill=1;endArrow=block;startSize=8;" edge="1" parent="1">
          <mxGeometry width="60" relative="1" as="geometry">
            <mxPoint x="1280" y="340" as="sourcePoint" />
            <mxPoint x="500" y="340" as="targetPoint" />
          </mxGeometry>
        </mxCell>
        <mxCell id="d7HmcfIDhBQ9n9Z4sx2i-28" value="dispatch" style="html=1;verticalAlign=bottom;startArrow=oval;startFill=1;endArrow=block;startSize=8;" edge="1" parent="1">
          <mxGeometry width="60" relative="1" as="geometry">
            <mxPoint x="180" y="470" as="sourcePoint" />
            <mxPoint x="710" y="470" as="targetPoint" />
          </mxGeometry>
        </mxCell>
        <mxCell id="d7HmcfIDhBQ9n9Z4sx2i-29" value="dispatch" style="html=1;verticalAlign=bottom;startArrow=oval;startFill=1;endArrow=block;startSize=8;" edge="1" parent="1">
          <mxGeometry width="60" relative="1" as="geometry">
            <mxPoint x="700" y="520" as="sourcePoint" />
            <mxPoint x="170" y="520" as="targetPoint" />
          </mxGeometry>
        </mxCell>
        <mxCell id="d7HmcfIDhBQ9n9Z4sx2i-31" value="dispatch" style="html=1;verticalAlign=bottom;startArrow=oval;startFill=1;endArrow=block;startSize=8;" edge="1" parent="1">
          <mxGeometry width="60" relative="1" as="geometry">
            <mxPoint x="160" y="560" as="sourcePoint" />
            <mxPoint x="60" y="560" as="targetPoint" />
          </mxGeometry>
        </mxCell>
        <mxCell id="d7HmcfIDhBQ9n9Z4sx2i-32" value="" style="ellipse;html=1;shape=endState;fillColor=#000000;strokeColor=#ff0000;" vertex="1" parent="1">
          <mxGeometry x="20" y="540" width="30" height="30" as="geometry" />
        </mxCell>
      </root>
    </mxGraphModel>
  </diagram>
</mxfile>
